<svg width="411" height="804" viewBox="0 0 411 804" fill="none" xmlns="http://www.w3.org/2000/svg">
<path d="M-31.8698 3.04946C-31.4354 15.3991 -30.3376 27.7165 -28.5812 39.9483L-59.9012 8.62828L-59.9012 23.4856L-25.6058 57.7811C-23.2028 70.118 -20.1183 82.3124 -16.3664 94.3081C-16.5361 94.6222 -16.6398 94.9676 -16.6714 95.3232C-16.7029 95.6788 -16.6614 96.037 -16.5497 96.376C-16.4379 96.715 -16.2581 97.0277 -16.0212 97.2948C-15.7844 97.5619 -15.4955 97.7779 -15.1724 97.9295C-10.937 110.987 -5.92341 123.779 -0.158362 136.238C-3.29545 141.427 -5.96799 146.884 -8.14493 152.544C-34.904 163.702 -37.9773 194.708 -24.1377 217.65C-23.9516 217.967 -23.6803 218.224 -23.3547 218.394C-24.9403 220.802 -21.084 223.033 -19.4397 220.645C-11.7859 209.017 -0.706399 203.36 2.44515 188.816C5.14651 176.464 1.89706 164.406 -3.60352 153.366C-1.93754 149.097 0.0247739 144.95 2.26901 140.955C9.30587 155.539 17.3715 169.603 26.4049 183.042C26.0399 183.513 25.8099 184.074 25.7394 184.666L22.4703 218.296C19.2334 218.331 16.1218 219.552 13.724 221.726C11.3263 223.901 9.80892 226.879 9.45897 230.098C9.109 233.316 9.9508 236.55 11.825 239.19C13.6992 241.829 16.4758 243.69 19.6295 244.42C22.7832 245.15 26.0951 244.699 28.9385 243.152C31.7819 241.604 33.9596 239.069 35.0595 236.024C36.1594 232.98 36.1052 229.638 34.9071 226.631C33.7091 223.623 31.4503 221.16 28.5582 219.705L31.4357 190.343C38.3858 200.139 45.8477 209.561 53.7904 218.57C51.9394 220.887 50.9306 223.764 50.9297 226.729C50.9288 229.694 51.9358 232.572 53.7853 234.889C55.6349 237.207 58.2174 238.827 61.1089 239.484C64.0005 240.141 67.0294 239.796 69.6989 238.505C72.3683 237.214 74.5197 235.054 75.8001 232.379C77.0805 229.704 77.4138 226.674 76.7454 223.785C76.077 220.896 74.4465 218.32 72.1215 216.48C69.7965 214.64 66.915 213.644 63.9498 213.657C62.1514 213.665 60.3733 214.038 58.7233 214.753C53.2031 208.528 47.8983 202.108 42.8871 195.53C50.939 195.296 58.9777 194.793 67.0035 194.023C67.9478 197.077 69.9783 199.68 72.7112 201.339C75.4441 202.997 78.6901 203.598 81.8354 203.026C84.9808 202.454 87.8076 200.75 89.7816 198.235C91.7556 195.72 92.74 192.57 92.5488 189.378C92.3575 186.187 91.0038 183.176 88.7436 180.916C86.4833 178.655 83.4731 177.3 80.282 177.108C77.0908 176.916 73.9398 177.899 71.4246 179.873C68.9094 181.846 67.2043 184.673 66.6316 187.818C57.2551 188.718 47.8592 189.306 38.4436 189.462C18.9153 162.6 3.48498 132.986 -7.34235 101.59C6.98138 108.479 21.6641 114.595 36.6427 119.912L107.602 190.852C115.637 219.878 126.222 248.137 139.235 275.299C139.102 275.575 139.022 275.874 139 276.179L137.787 296.166C137.645 296.196 137.507 296.242 137.376 296.303C115.589 309.79 118.153 337.41 134.713 354.049C134.713 354.049 134.713 354.049 134.85 354.049C134.953 354.463 135.179 354.837 135.499 355.12C135.818 355.404 136.216 355.584 136.64 355.637C137.064 355.69 137.494 355.613 137.873 355.417C138.253 355.221 138.564 354.915 138.765 354.538C143.933 343.498 151.822 331.185 152.82 318.775C153.623 308.987 148.514 302.038 142.426 295.069L142.289 295.069L143.013 283.129C148.299 293.569 153.982 303.741 160.063 313.646C160.2 313.981 160.399 314.286 160.65 314.547C163.391 319.01 166.229 323.401 169.165 327.72C169.126 328 169.126 328.283 169.165 328.562C170.586 339.174 170.973 349.9 170.32 360.587C169.929 360.587 169.557 360.587 169.146 360.587C166.053 360.777 163.131 362.073 160.914 364.238C158.697 366.403 157.332 369.293 157.068 372.38C156.803 375.468 157.658 378.547 159.475 381.057C161.292 383.568 163.95 385.341 166.966 386.054C169.982 386.768 173.153 386.373 175.902 384.943C178.651 383.513 180.795 381.143 181.942 378.264C183.089 375.386 183.163 372.191 182.151 369.262C181.139 366.333 179.108 363.865 176.428 362.309C176.953 354.219 176.921 346.103 176.33 338.017C182.463 346.447 188.93 354.571 195.729 362.388C195.872 362.522 196.029 362.64 196.199 362.74C194.333 365.233 193.449 368.325 193.713 371.427C193.977 374.53 195.371 377.427 197.631 379.57C199.89 381.712 202.858 382.95 205.97 383.048C209.082 383.146 212.122 382.098 214.513 380.103C216.903 378.108 218.477 375.304 218.936 372.224C219.396 369.144 218.708 366.003 217.004 363.397C215.3 360.791 212.698 358.902 209.692 358.088C206.687 357.274 203.487 357.592 200.701 358.982C200.574 358.617 200.381 358.279 200.133 357.983C189.963 346.29 180.585 333.93 172.063 320.987C179.195 324.497 186.632 327.354 194.28 329.521L194.28 329.815C194.437 332.988 195.745 335.994 197.96 338.272C200.174 340.549 203.143 341.942 206.31 342.188C209.477 342.434 212.625 341.516 215.164 339.608C217.704 337.7 219.461 334.931 220.105 331.821C220.75 328.71 220.239 325.471 218.668 322.711C217.096 319.95 214.572 317.857 211.568 316.824C208.564 315.79 205.287 315.888 202.349 317.097C199.412 318.307 197.017 320.545 195.611 323.394C184.984 320.323 174.793 315.902 165.29 310.24C156.842 296.474 149.195 282.232 142.387 267.586C155.521 271.703 168.949 274.818 182.555 276.904C182.861 277.094 183.203 277.221 183.559 277.279C183.915 277.336 184.279 277.321 184.63 277.236C188.31 277.824 191.99 278.385 195.67 278.92L319.913 403.162L227.107 495.948C210.263 503.322 194.008 511.973 178.483 521.826C181.889 511.216 185.452 500.646 189.171 490.115L216.126 474.024C217.933 476.533 220.585 478.305 223.595 479.013C226.605 479.721 229.77 479.317 232.506 477.876C235.241 476.435 237.364 474.054 238.483 471.172C239.602 468.289 239.642 465.1 238.595 462.19C237.548 459.281 235.485 456.848 232.786 455.339C230.086 453.831 226.933 453.349 223.906 453.982C220.88 454.615 218.184 456.32 216.315 458.783C214.447 461.247 213.531 464.303 213.738 467.388C213.738 467.643 213.836 467.877 213.855 468.132L192.577 480.817C193.771 477.587 194.926 474.337 196.14 471.029C199.19 470.227 201.844 468.343 203.606 465.726C205.368 463.11 206.117 459.942 205.713 456.814C205.309 453.686 203.779 450.812 201.41 448.73C199.042 446.647 195.995 445.499 192.841 445.499C189.687 445.499 186.641 446.647 184.273 448.73C181.904 450.812 180.374 453.686 179.97 456.814C179.566 459.942 180.315 463.11 182.077 465.726C183.838 468.343 186.493 470.227 189.543 471.029C187.69 476.04 185.856 481.058 184.042 486.082C183.657 486.398 183.363 486.812 183.191 487.28C183.019 487.748 182.975 488.254 183.064 488.745C182.222 491.094 181.439 493.442 180.636 495.811C177.393 490.37 174.717 484.611 172.65 478.624C174.385 476.033 175.119 472.9 174.717 469.808C174.314 466.716 172.802 463.875 170.462 461.815C168.121 459.755 165.112 458.615 161.994 458.608C158.875 458.6 155.861 459.726 153.511 461.776C151.161 463.825 149.635 466.659 149.218 469.749C148.801 472.839 149.521 475.975 151.244 478.574C152.967 481.173 155.576 483.058 158.584 483.877C161.593 484.697 164.797 484.395 167.599 483.028C170.197 489.966 173.552 496.596 177.602 502.799C177.732 502.968 177.883 503.12 178.052 503.249C171.815 521.611 166.066 540.122 160.807 558.784C158.402 555.895 156.204 552.84 154.23 549.642C159.809 542.615 164.604 533.982 161.394 524.801C159.615 520.659 156.941 516.963 153.564 513.976C145.949 506.146 140.018 500.039 136.338 489.606C136.238 489.301 136.072 489.023 135.852 488.789C135.632 488.556 135.364 488.374 135.066 488.255C134.827 488.073 134.552 487.945 134.259 487.88C133.966 487.815 133.662 487.816 133.369 487.881C133.077 487.946 132.801 488.075 132.564 488.258C132.326 488.441 132.131 488.674 131.993 488.94C122.616 505.931 117.018 560.604 150.608 552.304C153.104 556.385 155.946 560.242 159.104 563.834L89.593 633.345C76.309 634.446 63.1828 636.98 50.443 640.901C55.2507 623.01 61.1872 605.442 68.2171 588.303C79.7927 582.135 90.9721 575.25 101.69 567.69C103.505 570.199 106.165 571.967 109.181 572.669C112.196 573.372 115.364 572.962 118.1 571.513C120.837 570.065 122.958 567.677 124.073 564.789C125.189 561.9 125.223 558.707 124.17 555.795C123.116 552.884 121.047 550.451 118.341 548.944C115.636 547.438 112.478 546.96 109.449 547.598C106.419 548.235 103.722 549.947 101.854 552.416C99.9855 554.885 99.0725 557.946 99.2827 561.035C99.3106 561.259 99.3498 561.481 99.4001 561.701C90.6185 567.946 81.5168 573.728 72.1321 579.024C75.6948 570.861 79.4728 562.797 83.5444 554.81C83.5444 554.81 83.5444 554.673 83.5444 554.614C85.3633 555.4 87.341 555.748 89.319 555.632C92.2306 555.467 95.0012 554.324 97.183 552.389C99.3647 550.454 100.83 547.839 101.342 544.968C101.853 542.097 101.382 539.138 100.003 536.568C98.6241 533.998 96.4189 531.968 93.7438 530.807C91.0686 529.646 88.0801 529.421 85.2613 530.169C82.4425 530.917 79.9583 532.593 78.2105 534.928C76.4627 537.262 75.5535 540.118 75.6298 543.034C75.7061 545.949 76.7635 548.753 78.631 550.993C78.4302 551.194 78.253 551.417 78.1025 551.658C76.2755 555.26 74.5007 558.869 72.7781 562.483C70.4404 556.378 68.5753 550.102 67.1992 543.711C69.2709 542.332 70.7803 540.257 71.4542 537.862C72.1281 535.466 71.9219 532.909 70.8729 530.652C69.8239 528.395 68.0015 526.589 65.7357 525.56C63.4699 524.531 60.9106 524.347 58.5211 525.042C56.1316 525.737 54.0699 527.265 52.7094 529.348C51.349 531.432 50.7798 533.934 51.1047 536.401C51.4296 538.868 52.6273 541.138 54.4808 542.798C56.3344 544.459 58.7213 545.401 61.2093 545.453C63.0421 553.844 65.6638 562.044 69.0393 569.942C69.0393 569.942 69.1372 570.059 69.1763 570.137C67.0622 574.77 65.0264 579.442 63.0689 584.153C62.8142 584.409 62.6162 584.715 62.488 585.052C62.3599 585.39 62.3044 585.75 62.3251 586.111C57.614 597.66 53.3923 609.366 49.66 621.228C48.4511 616.513 46.9674 611.872 45.2165 607.33C45.4939 607.079 45.7143 606.772 45.8625 606.429C50.9912 593.099 53.3988 578.104 45.3535 565.322C35.6835 549.975 15.8931 552.461 3.01276 541.715C1.05527 540.051 -1.74395 542.517 -0.530297 544.357C-3.48614 574.248 5.87073 614.357 42.5347 613.065C44.4083 618.524 45.9124 624.102 47.037 629.763C45.6863 634.402 44.4139 639.041 43.2198 643.72C42.734 644.166 42.3885 644.745 42.2251 645.384C42.0618 646.024 42.0877 646.697 42.2998 647.322C38.8938 661.011 36.1402 674.857 34.0392 688.86L29.0867 693.832C27.8143 692.227 26.4832 690.7 25.1717 689.192L25.0542 689.036L25.0542 688.919C27.2858 676.919 26.2875 663.275 15.717 655.367C4.28519 646.793 -11.4531 651.021 -23.9811 645.286C-24.342 645.134 -24.7344 645.072 -25.1246 645.104C-25.5149 645.137 -25.8915 645.263 -26.2223 645.473C-26.553 645.682 -26.8282 645.968 -27.0242 646.307C-27.2202 646.646 -27.3314 647.028 -27.3481 647.42C-27.709 647.663 -27.9868 648.011 -28.1443 648.416C-28.3017 648.822 -28.3313 649.267 -28.2289 649.69C-25.3905 662.884 -21.2211 676.293 -10.1417 684.925C-5.55093 688.437 -0.275451 690.948 5.34482 692.296C10.9651 693.645 16.8056 693.801 22.4899 692.755C23.7231 694.106 24.8977 695.535 25.9939 696.983L-8.45816 731.455C-17.8434 732.344 -27.1525 733.908 -36.3134 736.133C-40.2284 737.112 -38.545 743.122 -34.6495 742.162C-28.3526 740.605 -21.9745 739.396 -15.5443 738.541L-59.9992 782.976L-59.9992 797.794L0.957426 736.799C14.2488 735.977 27.5598 736.192 40.9491 736.662C41.044 736.967 41.2043 737.248 41.419 737.484C43.3765 739.637 45.1773 741.888 46.9391 744.179C33.8434 766.612 52.3809 799.635 76.928 803.765C77.2627 803.844 77.6112 803.844 77.9459 803.765C78.3297 803.956 78.7601 804.033 79.1863 803.988C79.6126 803.943 80.0171 803.777 80.3522 803.509C80.6874 803.242 80.9392 802.885 81.0782 802.479C81.2171 802.074 81.2374 801.637 81.1366 801.22C77.3978 787.792 84.5427 772.856 78.6115 760.308C73.9722 750.521 63.5583 746.097 53.6925 743.631C53.4422 743.558 53.1799 743.536 52.9211 743.567C52.6623 743.597 52.4121 743.679 52.1852 743.807C50.4822 741.458 48.6812 739.148 46.7629 736.916C54.5929 737.23 62.4229 737.562 70.2529 737.797C85.1217 738.257 100.004 737.649 114.786 735.977C115.154 736.23 115.577 736.391 116.019 736.447C131.262 739.057 146.569 741.171 161.942 742.789C161.923 743.115 161.923 743.442 161.942 743.768C162.091 746.44 163.183 748.972 165.025 750.913C166.866 752.855 169.337 754.079 171.997 754.369C174.658 754.658 177.334 753.994 179.55 752.494C181.767 750.994 183.378 748.756 184.098 746.179C184.818 743.602 184.599 740.853 183.481 738.421C182.363 735.99 180.418 734.035 177.993 732.904C175.568 731.773 172.82 731.54 170.239 732.246C167.658 732.952 165.411 734.552 163.9 736.76C153.969 735.703 144.077 734.457 134.224 733.021C149.805 730.054 165.071 725.617 179.814 719.769C181.48 722.399 184.048 724.331 187.038 725.202C190.027 726.073 193.231 725.823 196.049 724.499C198.867 723.175 201.105 720.868 202.343 718.011C203.58 715.155 203.733 711.944 202.771 708.983C201.81 706.022 199.801 703.513 197.121 701.928C194.441 700.343 191.275 699.79 188.216 700.374C185.158 700.958 182.418 702.638 180.511 705.099C178.603 707.56 177.66 710.632 177.857 713.739L177.857 713.877C165.214 718.887 152.17 722.816 138.863 725.622C142.696 719.268 147.162 713.32 152.194 707.867C155.338 708.348 158.549 707.667 161.227 705.952C163.905 704.236 165.866 701.602 166.743 698.545C167.619 695.488 167.351 692.216 165.989 689.341C164.627 686.467 162.264 684.188 159.342 682.931C156.421 681.673 153.141 681.523 150.118 682.51C147.094 683.496 144.533 685.551 142.915 688.289C141.297 691.027 140.733 694.262 141.327 697.386C141.922 700.51 143.635 703.311 146.145 705.263C140.264 711.837 135.155 719.061 130.916 726.796C130.874 726.911 130.841 727.029 130.818 727.149C111.548 730.445 92.0106 731.913 72.4649 731.533C74.6377 728.969 76.8497 726.424 79.1204 723.938C79.3537 723.977 79.5918 723.977 79.8251 723.938C80.0962 724.156 80.4205 724.298 80.7647 724.349C91.1394 725.876 105.664 724.682 112.887 715.932C115.695 712.087 117.388 707.542 117.781 702.797C119.23 693.479 120.247 685.787 125.728 677.761C127.275 675.49 123.771 673.396 122.107 675.294C108.013 675.392 93.3514 678.387 83.2703 688.997C79.2931 693.021 76.5482 698.097 75.3587 703.628C74.1692 709.16 74.5846 714.916 76.5561 720.219C73.1892 723.899 69.881 727.638 66.6707 731.475C64.4979 731.475 62.3055 731.357 60.1327 731.259C52.0874 730.926 44.0811 730.554 36.1141 730.339C36.7209 719.769 37.6801 709.296 39.0112 698.862L99.3218 638.572C122.812 636.614 146.83 636.34 169.792 631.837C169.989 632.14 170.258 632.389 170.575 632.562C178.422 636.69 186.624 640.103 195.083 642.76C195.042 642.987 195.042 643.219 195.083 643.446C198.195 656.228 203.715 664.176 217.359 666.309C234.154 668.932 253.025 663.98 268.528 657.99C268.982 657.818 269.371 657.509 269.641 657.105C269.91 656.702 270.047 656.224 270.032 655.739C270.017 655.254 269.851 654.785 269.557 654.399C269.262 654.013 268.855 653.729 268.391 653.586C256.764 644.15 248.307 631.642 233.019 627.883C226.323 626.268 219.346 626.201 212.62 627.687C205.894 629.173 199.595 632.172 194.202 636.457C193.844 636.746 193.578 637.135 193.438 637.573C187.582 635.569 181.86 633.189 176.31 630.448C199.139 625.099 221.361 617.432 242.63 607.565C242.986 607.796 243.386 607.949 243.805 608.015C259.51 610.457 275.441 611.113 291.294 609.972C291.555 609.937 291.811 609.871 292.057 609.776C292.778 612.869 294.611 615.589 297.207 617.418C299.803 619.247 302.982 620.058 306.137 619.695C309.292 619.332 312.203 617.822 314.316 615.452C316.43 613.081 317.598 610.016 317.598 606.84C317.598 603.664 316.43 600.6 314.316 598.229C312.203 595.859 309.292 594.349 306.137 593.986C302.982 593.623 299.803 594.434 297.207 596.263C294.611 598.092 292.778 600.811 292.057 603.904C291.821 603.84 291.578 603.807 291.333 603.806C278.373 604.715 265.355 604.387 252.457 602.828C262.714 597.725 272.717 592.14 282.466 586.071C284.342 588.525 287.037 590.222 290.06 590.854C293.083 591.487 296.232 591.012 298.934 589.516C301.636 588.021 303.711 585.604 304.781 582.706C305.85 579.809 305.843 576.624 304.76 573.732C303.677 570.839 301.591 568.432 298.883 566.949C296.174 565.466 293.022 565.005 290.002 565.651C286.982 566.298 284.295 568.008 282.43 570.47C280.565 572.931 279.647 575.981 279.843 579.063C279.878 579.459 279.943 579.852 280.038 580.238C273.755 584.153 267.373 587.892 260.894 591.396C265.816 580.047 271.635 569.109 278.296 558.686C280.809 560.028 283.696 560.499 286.504 560.023C289.313 559.548 291.884 558.153 293.814 556.058C295.745 553.963 296.925 551.287 297.17 548.449C297.415 545.611 296.711 542.771 295.168 540.377C293.625 537.982 291.331 536.168 288.645 535.218C285.96 534.268 283.035 534.237 280.329 535.129C277.624 536.021 275.292 537.786 273.698 540.147C272.104 542.508 271.339 545.331 271.523 548.174C271.673 550.392 272.402 552.532 273.637 554.38C265.228 567.424 258.096 581.249 252.34 595.663C252.332 595.741 252.332 595.82 252.34 595.898C235.091 604.674 217.136 611.988 198.665 617.763C199.258 611.515 200.431 605.335 202.169 599.304C202.616 599.534 203.135 599.583 203.617 599.441C214.403 596.622 226.207 593.255 232.823 583.487C240.888 571.547 236.464 556.082 238.696 542.752C238.93 542.368 239.048 541.925 239.035 541.476C239.023 541.026 238.881 540.591 238.627 540.22C238.372 539.85 238.016 539.561 237.601 539.389C237.186 539.216 236.73 539.167 236.288 539.248C220.628 542.263 206.926 546.256 198.078 560.33C190.385 572.467 186.94 586.228 198.41 596.309C196.147 603.726 194.69 611.365 194.065 619.094C185.197 621.737 176.212 624.086 167.11 626.004C161.355 627.198 155.541 628.079 149.669 628.804C153.584 610.769 157.897 592.877 162.608 575.129L240.908 496.829C253.723 491.674 266.773 487.172 280.058 483.322C283.307 484.81 286.557 486.278 289.845 487.687C289.456 487.93 289.147 488.282 288.959 488.701C288.771 489.119 288.711 489.584 288.788 490.036C293.976 523.588 329.896 514.29 351.859 505.422C354.208 504.463 353.542 500.959 351.467 500.979C344.832 492.894 337.53 484.399 327.175 481.247C316.82 478.096 304.664 480.816 294.465 484.183C294.235 484.279 294.018 484.405 293.819 484.555C291.47 483.557 289.102 482.598 286.772 481.462C307.228 475.91 328.021 471.679 349.021 468.797C349.277 469.297 349.68 469.707 350.175 469.972C357.547 473.99 365.225 477.42 373.137 480.229C371.842 482.756 371.42 485.641 371.936 488.433C372.452 491.225 373.878 493.767 375.991 495.664C378.104 497.561 380.785 498.705 383.616 498.919C386.448 499.132 389.27 498.402 391.643 496.844C394.016 495.285 395.807 492.984 396.736 490.301C397.665 487.618 397.679 484.703 396.778 482.011C395.876 479.318 394.109 477 391.752 475.417C389.395 473.834 386.58 473.076 383.747 473.261C381.503 473.4 379.338 474.144 377.483 475.414C377.208 475.182 376.897 474.997 376.563 474.866C370.541 472.794 364.656 470.343 358.945 467.525C367.832 466.442 376.726 465.587 385.626 464.961C386.74 467.862 388.876 470.256 391.632 471.693C394.388 473.129 397.574 473.509 400.59 472.761C403.607 472.013 406.246 470.188 408.011 467.63C409.776 465.072 410.545 461.957 410.174 458.871C409.803 455.785 408.317 452.942 405.996 450.875C403.675 448.808 400.679 447.661 397.571 447.649C394.463 447.638 391.458 448.762 389.121 450.811C386.784 452.86 385.276 455.692 384.882 458.775C368.811 459.969 352.72 461.809 336.727 464.374C340.114 446.325 354.051 434.894 368.439 424.989C370.287 427.466 372.964 429.195 375.983 429.86C379.001 430.525 382.157 430.08 384.875 428.608C387.592 427.136 389.688 424.735 390.78 421.844C391.872 418.952 391.886 415.764 390.82 412.864C389.754 409.963 387.679 407.543 384.975 406.047C382.27 404.551 379.118 404.078 376.094 404.716C373.07 405.354 370.377 407.06 368.507 409.521C366.638 411.982 365.717 415.034 365.914 418.118C365.947 418.44 365.999 418.761 366.07 419.077C349.98 430.098 334.144 442.959 330.6 463.258C330.498 463.931 330.622 464.62 330.953 465.215C303.95 469.776 277.402 476.706 251.615 485.926L334.496 403.045L212.779 281.328C225.307 283.148 237.795 285.243 250.108 288.14C268.351 292.706 285.722 300.232 301.532 310.416C307.683 319.047 312.555 328.521 315.998 338.545C313.533 340.411 311.821 343.101 311.175 346.125C310.529 349.148 310.992 352.303 312.48 355.013C313.967 357.723 316.38 359.807 319.277 360.886C322.174 361.965 325.363 361.966 328.26 360.888C331.158 359.811 333.571 357.727 335.06 355.017C336.549 352.308 337.013 349.154 336.369 346.13C335.724 343.107 334.014 340.416 331.549 338.549C329.085 336.682 326.032 335.764 322.947 335.962C322.555 335.962 322.164 336.098 321.772 336.157C319.704 330.209 317.151 324.441 314.138 318.912C327.447 328.646 340.234 339.074 352.446 350.153C351.719 353.177 352.118 356.363 353.571 359.113C355.023 361.864 357.429 363.99 360.337 365.094C363.244 366.198 366.455 366.204 369.367 365.111C372.279 364.018 374.692 361.9 376.155 359.155C377.617 356.41 378.029 353.226 377.313 350.199C376.596 347.173 374.801 344.511 372.263 342.713C369.725 340.915 366.618 340.105 363.525 340.433C360.432 340.761 357.565 342.206 355.461 344.496C347.063 337.058 338.568 329.678 329.818 322.709C341.479 323.124 353.155 322.547 364.72 320.987C365.487 324.071 367.356 326.768 369.974 328.569C372.593 330.371 375.78 331.152 378.935 330.766C382.09 330.379 384.994 328.852 387.1 326.472C389.207 324.092 390.37 321.023 390.37 317.845C390.37 314.666 389.207 311.598 387.1 309.218C384.994 306.838 382.09 305.31 378.935 304.924C375.78 304.538 372.593 305.319 369.974 307.12C367.356 308.922 365.487 311.619 364.72 314.703C350.456 316.717 336.014 317.15 321.655 315.995C321.479 315.995 321.342 315.995 321.165 315.995C303.665 302.939 284.893 291.839 263.537 285.301C261.794 284.773 260.013 284.283 258.251 283.794C263.054 281.967 267.902 280.394 272.796 279.076C272.965 279.046 273.129 278.993 273.285 278.92C273.579 278.92 273.872 278.783 274.146 278.705C277.949 282.71 282.636 285.77 287.834 287.64C293.031 289.509 298.593 290.136 304.076 289.471C321.361 287.513 331.481 274.809 344.91 265.648C345.311 265.378 345.617 264.988 345.783 264.534C345.949 264.08 345.967 263.585 345.834 263.12C345.702 262.655 345.425 262.244 345.045 261.945C344.664 261.647 344.199 261.477 343.716 261.459C343.451 261.22 343.126 261.057 342.776 260.989C323.201 256.918 272.306 240.925 270.212 275.24C263.705 277.096 257.313 279.332 251.067 281.935C236.053 278.313 220.765 276.062 205.477 273.928L199.037 267.488C207.043 270.875 215.206 270.131 223.545 265.863C236.68 259.149 239.714 246.288 250.852 237.793C251.228 237.513 251.51 237.125 251.66 236.681C251.811 236.237 251.822 235.758 251.694 235.307C251.857 234.969 251.933 234.596 251.916 234.221C251.898 233.846 251.787 233.481 251.592 233.16C251.398 232.839 251.126 232.572 250.802 232.383C250.478 232.194 250.111 232.089 249.736 232.077C237.58 231.725 225.189 230.648 213.033 231.118C205.908 231.411 199.174 233.075 194.437 238.772C190.461 244.074 188.441 250.589 188.721 257.211L110.773 179.244C107.132 165.241 104.072 151.271 101.593 137.334C112.946 139.487 124.365 141.197 135.849 142.463C139.764 147.787 143.444 153.444 147.339 158.808C145.186 171.238 147.241 185.86 157.283 194.278C161.649 197.958 166.64 198.819 172.2 199.073C183.025 199.602 194.084 198.76 204.929 198.565C205.41 198.549 205.873 198.38 206.251 198.082C206.629 197.784 206.901 197.373 207.028 196.909C207.155 196.445 207.13 195.952 206.957 195.503C206.783 195.054 206.47 194.673 206.064 194.414C198.782 189.071 198.998 180.712 195.69 173.352C193.552 168.484 190.178 164.259 185.902 161.098C176.28 153.904 164.26 150.686 152.331 152.113C151.958 152.148 151.6 152.276 151.289 152.484C150.978 152.693 150.724 152.975 150.55 153.307C150.281 153.26 150.007 153.268 149.741 153.328C149.476 153.388 149.225 153.501 149.003 153.659C146.576 150.156 144.207 146.593 141.8 143.148C170.326 145.908 199.051 145.908 227.577 143.148C227.8 143.828 228.277 144.396 228.908 144.733C237.31 149.042 245.349 154.024 252.947 159.63C251.765 161.614 251.137 163.878 251.126 166.187C251.108 169.119 252.066 171.973 253.85 174.299C255.634 176.625 258.142 178.29 260.978 179.033C263.814 179.775 266.816 179.552 269.511 178.398C272.206 177.245 274.44 175.227 275.86 172.663C277.281 170.098 277.807 167.134 277.356 164.238C276.904 161.341 275.501 158.678 273.368 156.667C271.234 154.657 268.492 153.414 265.574 153.135C262.656 152.857 259.728 153.558 257.253 155.128C250.913 150.272 244.19 145.939 237.149 142.169C248.679 140.799 260.17 139.037 271.641 136.747C273.184 139.518 275.687 141.631 278.678 142.687C281.669 143.743 284.943 143.671 287.885 142.484C290.827 141.297 293.234 139.076 294.654 136.239C296.074 133.403 296.409 130.145 295.596 127.078C294.784 124.012 292.879 121.348 290.241 119.586C287.602 117.825 284.412 117.088 281.268 117.513C278.124 117.938 275.244 119.497 273.169 121.896C271.093 124.295 269.965 127.369 269.996 130.541L269.996 130.737C252.372 134.223 234.552 136.629 216.635 137.941C224.895 131.324 233.078 124.571 241.064 117.602C242.591 118.209 244.218 118.521 245.86 118.522C248.89 118.552 251.839 117.545 254.217 115.667C256.595 113.789 258.259 111.154 258.932 108.2C259.605 105.246 259.247 102.15 257.918 99.4277C256.588 96.705 254.367 94.5191 251.624 93.2333C248.88 91.9476 245.779 91.6395 242.836 92.36C239.893 93.0804 237.285 94.7861 235.446 97.1937C233.606 99.6014 232.646 102.566 232.724 105.595C232.803 108.624 233.915 111.535 235.877 113.844C226.142 122.326 216.198 130.541 206.045 138.489C177.865 139.868 149.618 138.524 121.696 134.476C124.084 132.362 126.512 130.326 128.939 128.271C129.166 128.406 129.409 128.511 129.663 128.584C140.703 130.894 152.781 130.15 162.295 123.475C174.04 115.253 177.074 99.241 184.806 87.8679C186.254 85.7146 183.083 83.4439 181.302 85.1665C168.03 97.9686 151.939 87.7505 137.826 96.2852C128.038 102.158 125.787 113.531 125.533 124.042C125.528 124.387 125.601 124.729 125.748 125.041C122.564 127.729 119.412 130.47 116.293 133.262C116.198 133.36 116.119 133.472 116.058 133.595C93.3084 129.997 70.8777 124.61 48.9749 117.485L42.9654 111.475C44.9229 110.927 46.8804 110.301 48.8379 109.518C48.7911 109.909 48.8632 110.304 49.0448 110.654C49.2264 111.003 49.509 111.289 49.8558 111.475C82.7223 131.853 94.017 91.9002 114.316 75.0266C114.637 74.7585 114.863 74.3952 114.962 73.9893C115.275 73.7935 115.589 73.6172 115.902 73.4019C118.231 71.7772 116.019 67.9209 113.651 69.4869C99.0282 79.568 80.6082 68.4494 64.8307 76.299C59.3953 79.0119 54.6837 82.98 51.0858 87.8748C47.4879 92.7696 45.107 98.4505 44.1399 104.448C44.0759 104.76 44.0794 105.082 44.1504 105.393C44.2212 105.704 44.3578 105.995 44.551 106.249C42.8284 106.817 41.0862 107.286 39.3245 107.717L-21.358 47.0344C-23.7842 32.3995 -25.249 17.6214 -25.7429 2.79497C-25.7625 -0.963429 -32.0068 -0.982994 -31.8698 3.04946ZM-5.9134 198.369C-9.65223 204.907 -15.7009 209.272 -20.5751 214.851C-31.8307 195.667 -30.9107 169.437 -10.1024 158.357C-12.8437 167.244 -14.352 176.465 -14.5851 185.762C-14.5331 186.316 -14.2766 186.83 -13.8657 187.204C-13.4548 187.578 -12.919 187.785 -12.3633 187.785C-11.8076 187.785 -11.272 187.578 -10.8611 187.204C-10.4501 186.83 -10.1936 186.316 -10.1416 185.762C-9.91941 176.855 -8.46348 168.02 -5.8155 159.512C-0.53025 172.021 1.09447 186.056 -5.9134 198.369ZM145.636 329.012C143.033 335.942 139.568 342.715 136.338 349.37C123.751 335.413 121.089 313.724 137.376 301.744L136.201 321.319C136.025 324.197 140.488 324.177 140.664 321.319L141.839 301.744C144.873 305.524 146.829 310.054 147.497 314.855C148.166 319.655 147.523 324.547 145.636 329.012ZM3.7371 547.509C12.7808 553.048 23.4295 553.792 32.7668 559.254C48.4268 568.317 47.8396 586.541 42.9458 601.535C39.0349 592.704 34.157 584.334 28.4016 576.577C26.7181 574.307 22.8423 576.578 24.4866 578.829C31.2913 587.976 36.8228 598.006 40.9296 608.641C9.59003 608.544 1.93619 573.955 3.7371 547.509ZM-9.49564 679.464C-17.7563 671.751 -21.0254 660.867 -23.4135 650.101C-16.5035 652.626 -9.43689 652.959 -2.03753 653.859C15.58 656.032 23.41 668.149 21.2959 684.749C16.1744 679.053 10.7577 673.63 5.06818 668.501C2.93448 666.544 -0.217101 669.735 1.91657 671.653C7.26056 676.449 12.3892 681.441 17.2438 686.765L18.9272 688.566C13.8153 689.145 8.63873 688.634 3.7392 687.065C-1.16034 685.496 -5.67126 682.905 -9.49564 679.464ZM76.1059 775.577C75.5969 783.975 74.5399 791.022 76.1059 799.067C56.2177 794.154 40.5577 767.747 49.9145 748.368C54.9304 755.482 59.0647 763.179 62.2271 771.29C63.2646 773.932 67.5711 772.778 66.5337 770.096C63.6472 762.664 60.0068 755.547 55.6696 748.857C68.4912 752.713 77.0063 760.367 76.1059 775.577ZM91.0024 688.116C99.2827 681.969 109.305 680.012 119.386 679.66C116.396 685.624 114.525 692.086 113.866 698.726C112.868 706.556 111.732 712.898 104.079 716.911C97.4314 720.015 90.0186 721.097 82.7614 720.023C89.8671 712.428 97.2664 705.087 105.038 698.138C107.191 696.181 104.02 693.068 101.886 694.986C94.2519 701.818 86.9896 709.022 79.9817 716.519C76.8889 705.733 81.8413 694.83 91.0024 688.116ZM237.365 633.991C247.955 638.434 254.982 647.693 263.38 654.995C241.847 662.825 207.983 670.655 199.898 644.033C211.254 647.159 222.948 648.894 234.722 649.201C235.314 649.201 235.882 648.965 236.3 648.547C236.719 648.128 236.954 647.561 236.954 646.969C236.954 646.377 236.719 645.81 236.3 645.391C235.882 644.973 235.314 644.738 234.722 644.738C222.32 644.413 210.017 642.439 198.136 638.865C209.725 630.82 223.956 628.392 237.365 633.991ZM196.59 574.522C198.445 567.676 201.954 561.391 206.808 556.219C214.168 548.722 224.112 546.178 234.057 544.181C233.078 552.951 234.35 561.798 232.804 570.49C230.044 586.15 217.144 591.141 203.539 594.821C206.162 587.082 209.697 579.683 214.071 572.78C215.597 570.353 211.741 568.102 210.155 570.529C205.985 577.169 202.552 584.245 199.918 591.631C195.279 586.835 194.496 581.862 196.59 574.561L196.59 574.522ZM327.292 486.063C335.631 489.077 341.602 495.85 347.122 502.545C327.449 510.12 297.871 518.087 293.232 489.038C302.256 492.835 311.378 496.379 320.637 499.589C323.358 500.529 324.552 496.222 321.811 495.282C314.49 492.757 307.267 490.017 300.083 487.1C308.951 484.555 318.542 482.931 327.292 486.102L327.292 486.063ZM128.195 520.73C128.301 511.958 130.192 503.299 133.754 495.282C135.967 500.61 139.042 505.538 142.857 509.866C146.106 513.487 150.334 516.345 153.329 520.202C160.2 529.069 157.714 537.525 151.724 545.492C149.751 541.819 148.069 537.997 146.693 534.06C145.773 531.359 141.486 532.514 142.406 535.235C143.963 539.719 145.888 544.066 148.161 548.233C133.637 550.19 127.901 532.945 128.195 520.73ZM7.53458 730.182L31.24 706.497C31.3928 706.66 31.58 706.787 31.788 706.869C30.9528 714.568 30.3004 722.294 29.8305 730.046C22.4899 729.909 14.9731 729.908 7.53458 730.202L7.53458 730.182ZM41.6147 681.245C43.52 670.087 45.8364 658.994 48.5638 647.967C59.632 644.172 71.0676 641.548 82.683 640.137L41.6147 681.245ZM143.268 628.96C143.258 629.123 143.258 629.286 143.268 629.449C130.838 630.683 118.231 631.231 105.684 632.033L153.917 583.82C150.054 598.815 146.504 613.881 143.268 629.019L143.268 628.96ZM168.324 554.575C170.594 546.745 172.937 538.915 175.351 531.085C187.778 522.827 200.724 515.38 214.11 508.789L168.324 554.575ZM338.626 264.728C320.461 277.863 299.809 296.459 279.177 277.569C289.712 275.167 300.459 273.816 311.26 273.537C311.814 273.485 312.328 273.228 312.702 272.817C313.076 272.406 313.283 271.871 313.283 271.315C313.283 270.759 313.076 270.224 312.702 269.813C312.328 269.402 311.814 269.145 311.26 269.093C298.929 269.407 286.671 271.094 274.714 274.124C277.963 247.854 319.873 260.363 338.705 264.748L338.626 264.728ZM152.331 156.674C167.482 155.206 185.021 160.589 191.481 175.525C194.456 182.337 195.396 189.012 199.702 194.414C189.66 194.923 178.718 196.118 169.185 194.414C154.739 191.85 150.158 177.189 151.137 163.956C157.303 171.59 164.409 178.148 174.275 181.573C176.995 182.513 178.19 178.226 175.469 177.286C165.25 173.743 158.164 166.344 151.979 158.005L152.331 156.674ZM140.586 100.533C147.77 96.148 155.365 97.9489 163.313 97.5574C167.83 97.4141 172.263 96.2993 176.31 94.2885C172.669 102.119 169.577 110.418 163.998 116.291C156.07 124.649 144.149 126.489 133.226 124.728C138.785 120.167 144.442 115.723 150.256 111.475C152.546 109.811 150.256 105.935 148.005 107.56C141.937 112.01 135.999 116.617 130.192 121.38C130.701 112.943 132.893 105.25 140.586 100.552L140.586 100.533ZM85.3061 77.493C92.451 77.9432 99.0086 78.9221 105.429 77.8063C90.4543 95.0323 79.0226 123.808 52.7921 108.128C60.838 104.669 68.4899 100.358 75.6165 95.2673C77.9459 93.623 75.7339 89.7667 73.3654 91.3523C65.7244 96.8628 57.4422 101.424 48.7009 104.937C52.2831 87.2023 67.1405 76.3577 85.3061 77.5126L85.3061 77.493ZM201.914 238.223C206.984 235.679 213.15 235.62 218.651 235.698C227.714 235.835 236.778 236.207 245.821 236.501C241.996 240.62 238.574 245.098 235.603 249.871C227.636 261.126 213.327 268.682 200.368 263.221C207.519 258.735 215.006 254.808 222.762 251.476C225.346 250.282 223.095 246.445 220.511 247.561C211.884 251.257 203.626 255.76 195.846 261.009C195.405 260.968 194.964 261.079 194.593 261.322C189.21 255.606 197.569 240.416 201.914 238.243L201.914 238.223ZM186.02 269.387C185.55 269.876 185.139 270.405 184.688 270.914C169.994 268.759 155.508 265.36 141.389 260.754C141.041 260.624 140.67 260.567 140.3 260.587C139.929 260.607 139.567 260.704 139.235 260.872C130.423 241.094 122.884 220.773 116.665 200.033L186.02 269.387ZM95.0936 136.14C97.1164 147.65 99.5241 159.219 102.317 170.846L58.4492 126.998C70.5466 130.574 82.7614 133.628 95.0936 136.159L95.0936 136.14ZM25.9743 109.381C13.7595 104.644 1.73394 99.3584 -10.1024 93.5251C-12.9865 84.3901 -15.4725 75.1637 -17.5605 65.846L25.9743 109.381Z" fill="#D9544D" fill-opacity="0.06"/>
<path d="M180.891 184.39C180.891 184.982 181.126 185.549 181.544 185.968C181.963 186.386 182.53 186.621 183.122 186.621C183.714 186.621 184.282 186.386 184.7 185.968C185.119 185.549 185.354 184.982 185.354 184.39C185.354 183.798 185.119 183.23 184.7 182.812C184.282 182.393 183.714 182.158 183.122 182.158C182.53 182.158 181.963 182.393 181.544 182.812C181.126 183.23 180.891 183.798 180.891 184.39Z" fill="#D9544D" fill-opacity="0.06"/>
<path d="M158.36 105.327C158.308 104.774 158.052 104.26 157.641 103.886C157.23 103.512 156.694 103.304 156.138 103.304C155.583 103.304 155.047 103.512 154.636 103.886C154.225 104.26 153.969 104.774 153.917 105.327C153.969 105.88 154.225 106.394 154.636 106.768C155.047 107.142 155.583 107.35 156.138 107.35C156.694 107.35 157.23 107.142 157.641 106.768C158.052 106.394 158.308 105.88 158.36 105.327Z" fill="#D9544D" fill-opacity="0.06"/>
<path d="M85.267 88.963C87.8509 87.7298 85.5802 83.8931 83.0159 85.048L79.5706 86.6925C76.9868 87.9257 79.2378 91.7624 81.8022 90.6075L85.267 88.963Z" fill="#D9544D" fill-opacity="0.06"/>
<path d="M-15.8574 192.869L-16.4447 197.038C-16.5809 197.606 -16.4972 198.204 -16.2103 198.712C-15.9234 199.221 -15.4546 199.602 -14.8982 199.779C-14.6155 199.856 -14.3202 199.876 -14.0295 199.839C-13.7387 199.803 -13.4581 199.709 -13.2036 199.563C-12.9491 199.418 -12.7257 199.224 -12.5463 198.992C-12.3668 198.76 -12.2348 198.495 -12.1578 198.212L-11.5509 194.063C-11.4204 193.493 -11.5089 192.894 -11.7991 192.387C-12.0892 191.879 -12.5595 191.499 -13.1169 191.322C-13.6852 191.171 -14.2901 191.248 -14.8022 191.537C-15.3144 191.826 -15.6931 192.304 -15.8574 192.869Z" fill="#D9544D" fill-opacity="0.06"/>
<path d="M320.48 270.19L321.635 270.19C322.188 270.138 322.702 269.881 323.076 269.47C323.45 269.059 323.658 268.523 323.658 267.968C323.658 267.412 323.45 266.876 323.076 266.465C322.702 266.055 322.188 265.798 321.635 265.746L320.48 265.746C319.927 265.798 319.413 266.055 319.039 266.465C318.665 266.876 318.457 267.412 318.457 267.968C318.457 268.523 318.665 269.059 319.039 269.47C319.413 269.881 319.927 270.138 320.48 270.19Z" fill="#D9544D" fill-opacity="0.06"/>
<path d="M228.439 247.441C229.091 246.805 229.892 246.341 230.768 246.091C231.051 246.013 231.316 245.881 231.547 245.702C231.779 245.523 231.973 245.299 232.119 245.045C232.264 244.79 232.358 244.51 232.395 244.219C232.432 243.928 232.411 243.633 232.334 243.35C232.257 243.067 232.125 242.803 231.945 242.571C231.766 242.339 231.543 242.145 231.288 241.999C231.034 241.854 230.753 241.76 230.462 241.723C230.171 241.686 229.876 241.707 229.593 241.784C227.968 242.249 226.487 243.118 225.287 244.309C223.232 246.404 226.383 249.458 228.439 247.441Z" fill="#D9544D" fill-opacity="0.06"/>
<path d="M135.222 326.8L134.674 329.58C134.107 332.379 138.393 333.495 138.961 330.754L139.529 327.975C140.077 325.176 135.79 323.981 135.222 326.8Z" fill="#D9544D" fill-opacity="0.06"/>
<path d="M327.096 500.976C328.154 501.25 329.211 501.505 330.268 501.779C330.55 501.856 330.846 501.876 331.136 501.839C331.427 501.802 331.708 501.709 331.962 501.563C332.217 501.418 332.44 501.224 332.619 500.992C332.799 500.76 332.931 500.495 333.008 500.213C333.085 499.93 333.106 499.635 333.069 499.344C333.032 499.054 332.938 498.773 332.793 498.518C332.647 498.264 332.453 498.04 332.221 497.861C331.99 497.681 331.725 497.549 331.442 497.472C330.385 497.218 329.328 496.944 328.271 496.689C327.723 496.591 327.158 496.702 326.687 496.999C326.216 497.297 325.873 497.759 325.726 498.296C325.578 498.833 325.637 499.406 325.891 499.902C326.145 500.398 326.575 500.781 327.096 500.976Z" fill="#D9544D" fill-opacity="0.06"/>
<path d="M241.299 651.058C242.356 651.332 243.413 651.586 244.49 651.86C245.038 651.958 245.603 651.848 246.074 651.55C246.545 651.253 246.888 650.791 247.035 650.253C247.182 649.716 247.123 649.143 246.87 648.648C246.616 648.152 246.186 647.768 245.664 647.573C244.607 647.299 243.55 647.025 242.493 646.771C241.941 646.662 241.369 646.765 240.89 647.06C240.411 647.354 240.061 647.82 239.91 648.361C239.759 648.903 239.819 649.481 240.076 649.981C240.334 650.481 240.77 650.866 241.299 651.058Z" fill="#D9544D" fill-opacity="0.06"/>
<path d="M216.987 568.452L220.198 563.206C221.705 560.759 217.849 558.507 216.283 560.954L213.072 566.201C211.643 568.647 215.5 570.898 216.987 568.452Z" fill="#D9544D" fill-opacity="0.06"/>
<path d="M143.855 526.875L143.013 521.335C142.583 518.497 138.276 519.711 138.707 522.51L139.548 528.069C140.077 530.888 144.383 529.694 143.855 526.875Z" fill="#D9544D" fill-opacity="0.06"/>
<path d="M110.773 691.267C111.156 690.842 111.36 690.286 111.346 689.715C111.331 689.143 111.097 688.599 110.693 688.195C110.288 687.791 109.745 687.557 109.173 687.542C108.602 687.527 108.046 687.732 107.621 688.115L106.643 689.094C106.29 689.523 106.11 690.068 106.138 690.623C106.166 691.177 106.4 691.702 106.794 692.093C107.188 692.485 107.714 692.715 108.268 692.74C108.823 692.764 109.367 692.581 109.794 692.226L110.773 691.267Z" fill="#D9544D" fill-opacity="0.06"/>
<path d="M63.5973 780.451L64.1845 784.366C64.6152 787.184 68.9021 785.99 68.4911 783.191L67.8842 779.276C67.5123 776.438 63.2058 777.632 63.5973 780.451Z" fill="#D9544D" fill-opacity="0.06"/>
<path d="M21.7266 567.434L18.0856 563.324C16.1281 561.19 13.0353 564.342 14.9341 566.475L18.5946 570.586C20.5325 572.661 23.6449 569.509 21.7266 567.434Z" fill="#D9544D" fill-opacity="0.06"/>
<path d="M-1.50897 665.193L-5.93286 661.278C-8.08612 659.321 -11.2377 662.531 -9.08447 664.43L-4.66052 668.345C-2.50726 670.224 0.644288 667.092 -1.50897 665.193Z" fill="#D9544D" fill-opacity="0.06"/>
</svg>
