<svg width="51" height="51" viewBox="0 0 51 51" fill="none" xmlns="http://www.w3.org/2000/svg">
<path d="M25.544 50.0918C30.4976 50.0918 35.3399 48.6229 39.4587 45.8708C43.5775 43.1187 46.7877 39.2071 48.6833 34.6306C50.579 30.054 51.075 25.0181 50.1086 20.1597C49.1422 15.3013 46.7568 10.8386 43.2541 7.33583C39.7513 3.8331 35.2886 1.44772 30.4302 0.481317C25.5717 -0.485082 20.5359 0.0109088 15.9593 1.90657C11.3828 3.80223 7.47116 7.01243 4.71909 11.1312C1.96701 15.25 0.498098 20.0923 0.498098 25.0459C0.50511 31.6864 3.14612 38.0528 7.84161 42.7483C12.5371 47.4438 18.9035 50.0848 25.544 50.0918ZM25.544 3.85328C29.7355 3.85328 33.8329 5.0962 37.318 7.42488C40.8031 9.75356 43.5194 13.0634 45.1234 16.9359C46.7274 20.8083 47.1471 25.0694 46.3294 29.1804C45.5117 33.2914 43.4933 37.0676 40.5294 40.0314C37.5656 42.9952 33.7894 45.0137 29.6784 45.8314C25.5675 46.6491 21.3063 46.2294 17.4339 44.6254C13.5614 43.0214 10.2516 40.3051 7.92292 36.8199C5.59424 33.3348 4.35131 29.2374 4.35131 25.0459C4.35768 19.4273 6.59252 14.0405 10.5655 10.0675C14.5385 6.09449 19.9253 3.85965 25.544 3.85328ZM14.5479 26.409C14.3687 26.2301 14.2266 26.0176 14.1297 25.7837C14.0327 25.5498 13.9828 25.2991 13.9828 25.0459C13.9828 24.7927 14.0327 24.542 14.1297 24.3082C14.2266 24.0743 14.3687 23.8618 14.5479 23.6829L22.2543 15.9764C22.6158 15.6149 23.1061 15.4118 23.6174 15.4118C24.1286 15.4118 24.6189 15.6149 24.9804 15.9764C25.3419 16.3379 25.545 16.8283 25.545 17.3395C25.545 17.8508 25.3419 18.3411 24.9804 18.7026L20.5613 23.1193L35.177 23.1193C35.688 23.1193 36.178 23.3223 36.5393 23.6836C36.9006 24.0449 37.1036 24.535 37.1036 25.0459C37.1036 25.5569 36.9006 26.0469 36.5393 26.4082C36.178 26.7696 35.688 26.9725 35.177 26.9725L20.5613 26.9725L24.9804 31.3893C25.3419 31.7508 25.545 32.2411 25.545 32.7524C25.545 33.2636 25.3419 33.7539 24.9804 34.1154C24.6189 34.4769 24.1286 34.68 23.6174 34.68C23.1061 34.68 22.6158 34.4769 22.2543 34.1154L14.5479 26.409Z" fill="#D9544D" fill-opacity="0.48"/>
</svg>
