<svg width="51" height="51" viewBox="0 0 51 51" fill="none" xmlns="http://www.w3.org/2000/svg">
<path d="M25.4555 0C20.5019 0 15.6596 1.46891 11.5408 4.22099C7.42204 6.97306 4.21184 10.8847 2.31618 15.4612C0.42052 20.0378 -0.0754718 25.0737 0.890929 29.9321C1.85733 34.7905 4.24272 39.2532 7.74544 42.756C11.2482 46.2587 15.7109 48.6441 20.5693 49.6105C25.4278 50.5769 30.4637 50.0809 35.0402 48.1852C39.6167 46.2896 43.5283 43.0794 46.2804 38.9606C49.0325 34.8418 50.5014 29.9995 50.5014 25.0459C50.4944 18.4054 47.8534 12.039 43.1579 7.34351C38.4624 2.64802 32.096 0.00701241 25.4555 0ZM25.4555 46.2385C21.264 46.2385 17.1667 44.9956 13.6815 42.6669C10.1964 40.3382 7.48011 37.0284 5.87608 33.1559C4.27206 29.2835 3.85238 25.0224 4.6701 20.9114C5.48782 16.8004 7.50623 13.0242 10.4701 10.0604C13.4339 7.09655 17.2101 5.07814 21.3211 4.26042C25.432 3.4427 29.6932 3.86238 33.5656 5.4664C37.4381 7.07043 40.7479 9.78674 43.0766 13.2719C45.4053 16.757 46.6482 20.8544 46.6482 25.0459C46.6418 30.6646 44.407 36.0513 40.434 40.0243C36.461 43.9973 31.0742 46.2321 25.4555 46.2385ZM36.4516 23.6828C36.6308 23.8617 36.7729 24.0742 36.8698 24.3081C36.9668 24.542 37.0167 24.7927 37.0167 25.0459C37.0167 25.2991 36.9668 25.5498 36.8698 25.7836C36.7729 26.0175 36.6308 26.23 36.4516 26.4089L28.7452 34.1154C28.3837 34.4769 27.8934 34.68 27.3822 34.68C26.8709 34.68 26.3806 34.4769 26.0191 34.1154C25.6576 33.7539 25.4545 33.2635 25.4545 32.7523C25.4545 32.241 25.6576 31.7507 26.0191 31.3892L30.4382 26.9725H15.8225C15.3116 26.9725 14.8215 26.7695 14.4602 26.4082C14.0989 26.0469 13.8959 25.5568 13.8959 25.0459C13.8959 24.5349 14.0989 24.0449 14.4602 23.6836C14.8215 23.3222 15.3116 23.1193 15.8225 23.1193H30.4382L26.0191 18.7025C25.6576 18.341 25.4545 17.8507 25.4545 17.3394C25.4545 16.8282 25.6576 16.3379 26.0191 15.9764C26.3806 15.6149 26.8709 15.4118 27.3822 15.4118C27.8934 15.4118 28.3837 15.6149 28.7452 15.9764L36.4516 23.6828Z" fill="#D9544D" fill-opacity="0.48"/>
</svg>
